<svg width="141" height="48" viewBox="0 0 141 48" fill="none" xmlns="http://www.w3.org/2000/svg">
<g filter="url(#filter0_bd_16_154)">
<path d="M57.5403 14.16H59.6763L65.5323 30H63.3363L61.9683 26.184H55.2483L53.8563 30H51.6603L57.5403 14.16ZM55.9083 24.336H61.3203L58.6323 16.68H58.5963L55.9083 24.336ZM73.6687 30.288C72.7647 30.288 71.9527 30.072 71.2327 29.64C70.5207 29.208 69.9567 28.604 69.5407 27.828C69.1327 27.044 68.9287 26.128 68.9287 25.08C68.9287 24.032 69.1327 23.12 69.5407 22.344C69.9567 21.56 70.5207 20.952 71.2327 20.52C71.9527 20.08 72.7647 19.86 73.6687 19.86C74.3967 19.86 75.0367 19.988 75.5887 20.244C76.1407 20.492 76.5807 20.784 76.9087 21.12C77.2367 21.456 77.4247 21.748 77.4727 21.996V13.488H79.5727V30H77.5087V28.08C77.4207 28.352 77.2007 28.66 76.8487 29.004C76.5047 29.348 76.0607 29.648 75.5167 29.904C74.9727 30.16 74.3567 30.288 73.6687 30.288ZM74.1487 28.56C74.7567 28.56 75.3127 28.416 75.8167 28.128C76.3207 27.84 76.7207 27.436 77.0167 26.916C77.3207 26.388 77.4727 25.776 77.4727 25.08C77.4727 24.384 77.3207 23.776 77.0167 23.256C76.7207 22.728 76.3207 22.32 75.8167 22.032C75.3127 21.736 74.7567 21.588 74.1487 21.588C73.5887 21.588 73.0687 21.732 72.5887 22.02C72.1087 22.308 71.7207 22.712 71.4247 23.232C71.1367 23.752 70.9927 24.368 70.9927 25.08C70.9927 25.792 71.1367 26.408 71.4247 26.928C71.7207 27.448 72.1087 27.852 72.5887 28.14C73.0687 28.42 73.5887 28.56 74.1487 28.56ZM84.2986 30V20.148H86.3866V30H84.2986ZM85.3666 16.776C84.9906 16.776 84.6666 16.644 84.3946 16.38C84.1306 16.108 83.9986 15.784 83.9986 15.408C83.9986 15.032 84.1306 14.708 84.3946 14.436C84.6666 14.164 84.9906 14.028 85.3666 14.028C85.6146 14.028 85.8426 14.092 86.0506 14.22C86.2666 14.348 86.4386 14.516 86.5666 14.724C86.6946 14.924 86.7586 15.152 86.7586 15.408C86.7586 15.784 86.6226 16.108 86.3506 16.38C86.0786 16.644 85.7506 16.776 85.3666 16.776ZM90.8984 20.148H92.8304V16.104H94.9064V20.148H97.4384V21.936H94.9064V26.808C94.9064 27.384 95.0064 27.808 95.2064 28.08C95.4144 28.352 95.6904 28.488 96.0344 28.488C96.3384 28.488 96.5744 28.432 96.7424 28.32C96.9104 28.208 97.0104 28.132 97.0424 28.092L97.8704 29.628C97.8224 29.668 97.6944 29.744 97.4864 29.856C97.2784 29.968 97.0104 30.068 96.6824 30.156C96.3544 30.244 95.9704 30.288 95.5304 30.288C94.7624 30.288 94.1184 30.056 93.5984 29.592C93.0864 29.12 92.8304 28.376 92.8304 27.36V21.936H90.8984V20.148ZM105.936 28.092L109.26 20.148H111.348L104.7 34.992H102.588L104.82 30L100.764 20.148H102.888L105.936 28.092ZM123.01 30V28.08C122.946 28.28 122.758 28.556 122.446 28.908C122.142 29.26 121.722 29.58 121.186 29.868C120.658 30.148 120.034 30.288 119.314 30.288C118.402 30.288 117.574 30.072 116.83 29.64C116.094 29.208 115.506 28.604 115.066 27.828C114.634 27.044 114.418 26.128 114.418 25.08C114.418 24.032 114.634 23.12 115.066 22.344C115.506 21.56 116.094 20.952 116.83 20.52C117.574 20.08 118.402 19.86 119.314 19.86C120.026 19.86 120.642 19.988 121.162 20.244C121.69 20.5 122.11 20.796 122.422 21.132C122.742 21.468 122.93 21.756 122.986 21.996V20.148H125.05V30H123.01ZM116.482 25.08C116.482 25.792 116.638 26.408 116.95 26.928C117.262 27.448 117.666 27.852 118.162 28.14C118.666 28.42 119.202 28.56 119.77 28.56C120.378 28.56 120.922 28.416 121.402 28.128C121.882 27.84 122.262 27.436 122.542 26.916C122.822 26.388 122.962 25.776 122.962 25.08C122.962 24.384 122.822 23.776 122.542 23.256C122.262 22.728 121.882 22.32 121.402 22.032C120.922 21.736 120.378 21.588 119.77 21.588C119.202 21.588 118.666 21.732 118.162 22.02C117.666 22.308 117.262 22.712 116.95 23.232C116.638 23.752 116.482 24.368 116.482 25.08Z" fill="black"/>
<path d="M30.3479 4.04264C32.4599 4.01064 34.5789 3.96064 36.6909 4.05264C36.6819 15.0576 36.7049 26.0626 36.6979 37.0676C25.8239 37.0976 14.9479 37.0796 4.07887 37.1366C4.02887 36.9046 4.01187 36.6666 4.02087 36.4296C4.01387 25.6466 3.99587 14.8646 4.00087 4.08264C12.7829 4.05964 21.5659 4.05264 30.3479 4.04264ZM22.4259 7.22064C18.1139 16.0846 14.0839 25.0926 9.84386 33.9936C12.3469 33.9966 14.8509 33.9956 17.3539 33.9896C20.1209 28.1406 22.8719 22.2836 25.6259 16.4286C27.0219 13.3136 28.6279 10.2956 29.9619 7.15364C27.4509 7.19664 24.9269 7.08164 22.4259 7.22064ZM26.9489 21.9386C24.2319 22.0016 22.5019 25.4006 23.9769 27.6606C25.1259 29.7476 28.3379 30.1256 29.9039 28.3126C31.2509 26.9556 31.3129 24.5536 29.9789 23.1666C29.2329 22.3116 28.0749 21.8586 26.9489 21.9386Z" fill="black"/>
</g>
<defs>
<filter id="filter0_bd_16_154" x="0" y="0" width="129.05" height="45.1366" filterUnits="userSpaceOnUse" color-interpolation-filters="sRGB">
<feFlood flood-opacity="0" result="BackgroundImageFix"/>
<feGaussianBlur in="BackgroundImageFix" stdDeviation="2"/>
<feComposite in2="SourceAlpha" operator="in" result="effect1_backgroundBlur_16_154"/>
<feColorMatrix in="SourceAlpha" type="matrix" values="0 0 0 0 0 0 0 0 0 0 0 0 0 0 0 0 0 0 127 0" result="hardAlpha"/>
<feOffset dy="4"/>
<feGaussianBlur stdDeviation="2"/>
<feComposite in2="hardAlpha" operator="out"/>
<feColorMatrix type="matrix" values="0 0 0 0 0 0 0 0 0 0 0 0 0 0 0 0 0 0 0.25 0"/>
<feBlend mode="normal" in2="effect1_backgroundBlur_16_154" result="effect2_dropShadow_16_154"/>
<feBlend mode="normal" in="SourceGraphic" in2="effect2_dropShadow_16_154" result="shape"/>
</filter>
</defs>
</svg>
