<svg width="100" height="103" viewBox="0 0 100 103" fill="none" xmlns="http://www.w3.org/2000/svg">
<path d="M89.2857 0H10.7143C4.79911 0 0 4.91203 0 10.9664V91.3866C0 97.4409 4.79911 102.353 10.7143 102.353H89.2857C95.2009 102.353 100 97.4409 100 91.3866V10.9664C100 4.91203 95.2009 0 89.2857 0ZM54.4196 79.8262C54.4196 89.7873 48.7054 94.3338 40.3795 94.3338C32.8571 94.3338 28.5045 90.3585 26.2723 85.5378L33.9286 80.8086C35.4018 83.4816 36.7411 85.7434 39.9777 85.7434C43.058 85.7434 45.0223 84.5097 45.0223 79.6891V46.9955H54.4196V79.8262ZM76.6518 94.3338C67.9241 94.3338 62.2768 90.0843 59.5313 84.5097L67.1875 79.9861C69.1964 83.3445 71.8304 85.8348 76.4509 85.8348C80.3348 85.8348 82.8348 83.8472 82.8348 81.0827C82.8348 77.7928 80.2902 76.6276 75.9821 74.6857L73.6384 73.6576C66.8527 70.7103 62.3661 66.9863 62.3661 59.1499C62.3661 51.9304 67.7455 46.4472 76.1161 46.4472C82.0982 46.4472 86.3839 48.572 89.4643 54.1465L82.1429 58.9443C80.5357 55.9971 78.7946 54.8319 76.0937 54.8319C73.3482 54.8319 71.6071 56.614 71.6071 58.9443C71.6071 61.823 73.3482 62.9882 77.3884 64.7931L79.7321 65.8212C87.7232 69.3167 92.2098 72.9036 92.2098 80.9456C92.2098 89.5817 85.558 94.3338 76.6518 94.3338Z" fill="#FFC700"/>
</svg>
