<svg width="152" height="43" viewBox="0 0 152 43" fill="none" xmlns="http://www.w3.org/2000/svg">
<g filter="url(#filter0_i_2_36)">
<path d="M51.112 28.004H44.504L43.524 31H37L44.252 11.176H51.42L58.644 31H52.092L51.112 28.004ZM49.6 23.328L47.808 17.812L46.016 23.328H49.6ZM59.2163 23.104C59.2163 21.4427 59.4963 20.0053 60.0563 18.792C60.6349 17.56 61.4189 16.6267 62.4083 15.992C63.3976 15.3387 64.5083 15.012 65.7403 15.012C66.7669 15.012 67.6443 15.2267 68.3723 15.656C69.1189 16.0667 69.6883 16.636 70.0803 17.364V10.28H76.2963V31H70.0803V28.844C69.6883 29.572 69.1189 30.1507 68.3723 30.58C67.6443 30.9907 66.7669 31.196 65.7403 31.196C64.5083 31.196 63.3976 30.8787 62.4083 30.244C61.4189 29.5907 60.6349 28.6573 60.0563 27.444C59.4963 26.212 59.2163 24.7653 59.2163 23.104ZM70.1083 23.104C70.1083 22.264 69.8936 21.6107 69.4643 21.144C69.0349 20.6773 68.4843 20.444 67.8123 20.444C67.1403 20.444 66.5896 20.6773 66.1603 21.144C65.7309 21.6107 65.5163 22.264 65.5163 23.104C65.5163 23.944 65.7309 24.5973 66.1603 25.064C66.5896 25.5307 67.1403 25.764 67.8123 25.764C68.4843 25.764 69.0349 25.5307 69.4643 25.064C69.8936 24.5973 70.1083 23.944 70.1083 23.104ZM82.2235 13.948C81.1408 13.948 80.2728 13.6587 79.6195 13.08C78.9662 12.5013 78.6395 11.7733 78.6395 10.896C78.6395 10 78.9662 9.26267 79.6195 8.684C80.2728 8.08667 81.1408 7.788 82.2235 7.788C83.2875 7.788 84.1462 8.08667 84.7995 8.684C85.4528 9.26267 85.7795 10 85.7795 10.896C85.7795 11.7733 85.4528 12.5013 84.7995 13.08C84.1462 13.6587 83.2875 13.948 82.2235 13.948ZM85.3035 15.208V31H79.0875V15.208H85.3035ZM97.9389 25.708V31H95.5869C91.2563 31 89.0909 28.844 89.0909 24.532V20.388H87.1309V15.208H89.0909V11.4H95.3069V15.208H97.8829V20.388H95.3069V24.644C95.3069 25.0173 95.3909 25.288 95.5589 25.456C95.7456 25.624 96.0443 25.708 96.4549 25.708H97.9389ZM118.142 15.208L108.034 38.56H101.23L105.206 30.216L98.6262 15.208H105.542L108.51 23.216L111.282 15.208H118.142ZM118.415 23.104C118.415 21.4427 118.695 20.0053 119.255 18.792C119.834 17.56 120.618 16.6267 121.607 15.992C122.597 15.3387 123.707 15.012 124.939 15.012C125.966 15.012 126.853 15.2267 127.599 15.656C128.346 16.0667 128.915 16.636 129.307 17.364V15.208H135.495V31H129.307V28.844C128.915 29.572 128.346 30.1507 127.599 30.58C126.853 30.9907 125.966 31.196 124.939 31.196C123.707 31.196 122.597 30.8787 121.607 30.244C120.618 29.5907 119.834 28.6573 119.255 27.444C118.695 26.212 118.415 24.7653 118.415 23.104ZM129.307 23.104C129.307 22.264 129.093 21.6107 128.663 21.144C128.234 20.6773 127.683 20.444 127.011 20.444C126.339 20.444 125.789 20.6773 125.359 21.144C124.93 21.6107 124.715 22.264 124.715 23.104C124.715 23.944 124.93 24.5973 125.359 25.064C125.789 25.5307 126.339 25.764 127.011 25.764C127.683 25.764 128.234 25.5307 128.663 25.064C129.093 24.5973 129.307 23.944 129.307 23.104Z" fill="url(#paint0_linear_2_36)"/>
</g>
<path d="M23.6697 15.0363L20.416 11.7863L20.2969 11.6674C20.0588 11.5088 19.8208 11.4296 19.5827 11.4296L14.464 11.8655C10.615 8.65512 5.77409 7.2679 1.68706 8.37767C1.05218 8.53621 0.536345 9.05146 0.377625 9.68562C-0.733411 13.7284 0.655384 18.6034 3.90913 22.4084L3.47265 27.442V27.5213C3.47265 27.7591 3.55201 28.0365 3.71073 28.2347L7.08352 31.6433C7.3216 31.8811 7.59936 32 7.9168 32C8.03584 32 8.15488 32 8.23424 31.9604C8.63104 31.8415 8.94847 31.4847 9.06751 31.0884L9.54367 26.8475C10.0992 27.1249 10.6547 27.3627 11.2102 27.5609C11.4086 27.6402 11.607 27.6798 11.8054 27.6798C12.3213 27.6798 12.7974 27.4816 13.1545 27.1249L19.0668 21.2193C19.5827 20.7041 19.7811 19.9114 19.543 19.2376C19.3446 18.6827 19.1065 18.1278 18.8288 17.5729L22.9951 17.0973H23.0745C23.511 17.0181 23.8284 16.701 23.9475 16.265C24.0665 15.7894 23.9871 15.3534 23.6697 15.0363ZM7.40096 29.503L5.25825 27.3231L5.53601 24.1127C6.25024 24.7468 7.00416 25.3414 7.79776 25.8566L7.40096 29.503ZM17.7971 19.9114L11.9245 25.7773C11.8848 25.817 11.8451 25.817 11.8054 25.817C9.74207 25.1035 7.75808 23.8352 6.1312 22.2102C2.63938 18.6827 1.05218 13.9662 2.08386 10.1612C2.12354 10.1216 2.12354 10.082 2.16322 10.082C2.95682 9.88379 3.75041 9.76489 4.58369 9.76489C7.87712 9.76489 11.4483 11.3106 14.1862 14.0851C15.8131 15.7101 17.0828 17.6918 17.7971 19.7529C17.8368 19.8321 17.8368 19.8718 17.7971 19.9114ZM17.8764 15.829C17.3606 15.0363 16.7654 14.2436 16.1305 13.5302L19.3446 13.2528L21.4873 15.393L17.8764 15.829Z" fill="#5200FF"/>
<path d="M21.2492 23.2407C21.1302 23.1614 20.6937 22.9633 20.2176 23.3596C19.8208 23.6767 17.9558 25.5395 17.5987 25.8962C15.0592 28.4329 15.0592 28.4329 15.2179 28.9877C15.2576 29.1463 15.3369 29.3048 15.456 29.3841C16.7257 30.6524 18.67 30.9298 20.1382 30.9298C21.2492 30.9298 22.0825 30.7713 22.1619 30.7317C22.519 30.6524 22.7967 30.375 22.8761 30.0182C22.9158 29.8201 23.7491 25.5792 21.4873 23.32C21.3683 23.32 21.2889 23.2803 21.2492 23.2407ZM21.1699 29.1463C20.1382 29.2652 18.551 29.2652 17.3606 28.6707C18.2336 27.7987 19.7811 26.2133 20.654 25.381C21.2492 26.4908 21.2492 28.1158 21.1699 29.1463Z" fill="#5200FF"/>
<path d="M9.66271 14.3625C7.83743 14.3625 6.36928 15.829 6.36928 17.6522C6.36928 19.4754 7.83743 20.9419 9.66271 20.9419C11.488 20.9419 12.9561 19.4754 12.9561 17.6522C12.9561 15.829 11.488 14.3625 9.66271 14.3625ZM9.66271 19.198C8.82943 19.198 8.15487 18.5242 8.15487 17.6919C8.15487 16.8595 8.82943 16.1857 9.66271 16.1857C10.496 16.1857 11.2102 16.8199 11.2102 17.6522C11.2102 18.4846 10.496 19.198 9.66271 19.198Z" fill="#5200FF"/>
<defs>
<filter id="filter0_i_2_36" x="37" y="7.78799" width="98.4955" height="34.772" filterUnits="userSpaceOnUse" color-interpolation-filters="sRGB">
<feFlood flood-opacity="0" result="BackgroundImageFix"/>
<feBlend mode="normal" in="SourceGraphic" in2="BackgroundImageFix" result="shape"/>
<feColorMatrix in="SourceAlpha" type="matrix" values="0 0 0 0 0 0 0 0 0 0 0 0 0 0 0 0 0 0 127 0" result="hardAlpha"/>
<feOffset dy="4"/>
<feGaussianBlur stdDeviation="2"/>
<feComposite in2="hardAlpha" operator="arithmetic" k2="-1" k3="1"/>
<feColorMatrix type="matrix" values="0 0 0 0 0 0 0 0 0 0 0 0 0 0 0 0 0 0 0.25 0"/>
<feBlend mode="normal" in2="shape" result="effect1_innerShadow_2_36"/>
</filter>
<linearGradient id="paint0_linear_2_36" x1="94.5" y1="0" x2="94.1807" y2="68.8004" gradientUnits="userSpaceOnUse">
<stop stop-color="#5200FF"/>
<stop offset="1" stop-color="#3300FF" stop-opacity="0"/>
</linearGradient>
</defs>
</svg>
